<svg id="e12yJZx97Wt1" xmlns="http://www.w3.org/2000/svg" xmlns:xlink="http://www.w3.org/1999/xlink" viewBox="0 0 265 265" shape-rendering="geometricPrecision" text-rendering="geometricPrecision"><g clip-path="url(#e12yJZx97Wt6)"><g><path d="M100.044,70.8815l17.757,32.9025l16.539,30.623h-.012L94.6389,60.8659c-.3101-.5714-.7775-1.042-1.3467-1.3562s-1.2166-.4586-1.8655-.4164c-.6488.0422-1.2719.2693-1.7957.6546-.5238.3852-.9262.9124-1.1598,1.5192L74.9083,96.6042c-.1652.4428-.2348.9155-.2041,1.3872.0308.4716.1611.9313.3824,1.3489L107.729,160.546c2.34,4.351,5.822,7.982,10.072,10.502c4.25,2.519,9.107,3.831,14.047,3.796l18.616-.086c.551-.003,1.093-.139,1.58-.397.391-.204.738-.484,1.02-.823.283-.34.495-.732.625-1.154.129-.422.174-.865.131-1.304-.042-.44-.172-.866-.381-1.255L134.34,134.407L114.483,97.6365l24.444,45.2755c2.339,4.352-12.856-23.817-9.863-18.69-1.777-2.744-13.125-24.165-14.581-26.5855l29.409,54.4855c-31.601-58.5488-26.579-49.243-1.346-2.494-28.063-51.9915-22.017-39.934-21.735-40.273.282-.34,15.086,28.611,15.216,28.189.13-.421-23.784-44.3817,10.134,18.788-28.36-52.548-19.883-36.847-20.09-37.237l17.819,33.021l2.271,4.216l4.303,7.976-2.028-3.762-4.546-8.43c-26.089-48.332-36.573-68.5003-37.142-68.8126s28.24,51.0616,27.592,51.1036c13.907,25.79-24.24-44.8927-24.24-44.8927s17.877,33.1247-10.056-18.6328ZM58.7159,139.978c-.7213.385-1.2766,1.021-1.561,1.788L46.4775,170.717c-.1515.415-.2192.856-.199,1.298.0201.441.1275.874.3162,1.274.1886.399.4546.758.7826,1.054s.7115.524,1.1283.671c.3761.135.773.203,1.1727.202l26.6322-.124c.5819-.001,1.1536-.152,1.6594-.44s.9281-.702,1.2261-1.202.4614-1.068.4742-1.65-.1255-1.157-.4013-1.669L63.3183,141.315c-.4359-.785-1.164-1.366-2.026-1.616s-1.7879-.15-2.5764.279Z"/><path d="M151.963,174.503l2.384-45.766v-11.967l5.068,15.729l2.916,13.133h.331c.412-.824.992-1.698,1.742-2.625.75-.941,1.765-1.742,3.044-2.404c1.279-.676,2.911-1.014,4.896-1.014c2.618,0,4.978.669,7.08,2.007c2.118,1.323,3.794,3.286,5.029,5.889c1.25,2.587,1.875,5.763,1.875,9.528c0,3.72-.61,6.881-1.831,9.484-1.22,2.602-2.882,4.587-4.984,5.955-2.103,1.367-4.485,2.051-7.147,2.051-1.94,0-3.551-.323-4.83-.97s-2.308-1.427-3.088-2.338c-.764-.927-1.36-1.802-1.786-2.625h-.463c0,0-8.995,1.193-3.634,0c5.36-1.193-6.602,5.933-6.602,5.933Zm10.214-17.534c0,2.19.308,4.109.926,5.756.632,1.647,1.537,2.934,2.713,3.86c1.191.912,2.632,1.367,4.323,1.367c1.764,0,3.242-.47,4.433-1.411c1.191-.956,2.088-2.257,2.691-3.904.617-1.662.926-3.551.926-5.668c0-2.103-.301-3.97-.904-5.603-.603-1.632-1.5-2.911-2.691-3.837-1.191-.927-2.676-1.39-4.455-1.39-1.706,0-3.154.449-4.345,1.346-1.191.896-2.096,2.154-2.713,3.771-.603,1.618-.904,3.522-.904,5.713Z" transform="translate(1.872785 0)"/></g><clipPath id="e12yJZx97Wt6"><rect width="265" height="265" rx="0" ry="0" fill="#fff"/></clipPath></g></svg>
