<svg width="265" height="265" viewBox="0 0 265 265" fill="none" xmlns="http://www.w3.org/2000/svg">
<g clip-path="url(#clip0_63_1494)">
<path d="M100.044 70.8815L117.801 103.784L134.34 134.407L134.328 134.407L94.6389 60.8659C94.3288 60.2945 93.8614 59.8239 93.2922 59.5097C92.7229 59.1956 92.0756 59.0511 91.4267 59.0933C90.7779 59.1355 90.1548 59.3626 89.631 59.7479C89.1072 60.1331 88.7048 60.6603 88.4712 61.2671L74.9083 96.6042C74.7431 97.047 74.6735 97.5197 74.7042 97.9914C74.735 98.463 74.8653 98.9227 75.0866 99.3403L107.729 160.546C110.069 164.897 113.551 168.528 117.801 171.048C122.051 173.567 126.908 174.879 131.848 174.844L150.464 174.758C151.015 174.755 151.557 174.619 152.044 174.361C152.435 174.157 152.782 173.877 153.064 173.538C153.347 173.198 153.559 172.806 153.689 172.384C153.818 171.962 153.863 171.519 153.82 171.08C153.778 170.64 153.648 170.214 153.439 169.825L134.34 134.407L114.483 97.6365L138.927 142.912C141.266 147.264 126.071 119.095 129.064 124.222C127.287 121.478 115.939 100.057 114.483 97.6365L143.892 152.122C112.291 93.5732 117.313 102.879 142.546 149.628C114.483 97.6365 120.529 109.694 120.811 109.355C121.093 109.015 135.897 137.966 136.027 137.544C136.157 137.123 112.243 93.1623 146.161 156.332C117.801 103.784 126.278 119.485 126.071 119.095L143.89 152.116L146.161 156.332L150.464 164.308L148.436 160.546L143.89 152.116C117.801 103.784 107.317 83.6157 106.748 83.3034C106.179 82.9911 134.988 134.365 134.34 134.407C148.247 160.197 110.1 89.5143 110.1 89.5143C110.1 89.5143 127.977 122.639 100.044 70.8815ZM58.7159 139.978C57.9946 140.363 57.4393 140.999 57.1549 141.766L46.4775 170.717C46.326 171.132 46.2583 171.573 46.2785 172.015C46.2986 172.456 46.406 172.889 46.5947 173.289C46.7833 173.688 47.0493 174.047 47.3773 174.343C47.7053 174.639 48.0888 174.867 48.5056 175.014C48.8817 175.149 49.2786 175.217 49.6783 175.216L76.3105 175.092C76.8924 175.091 77.4641 174.94 77.9699 174.652C78.4756 174.364 78.898 173.95 79.196 173.45C79.494 172.95 79.6574 172.382 79.6702 171.8C79.6829 171.218 79.5447 170.643 79.2689 170.131L63.3183 141.315C62.8824 140.53 62.1543 139.949 61.2923 139.699C60.4303 139.449 59.5044 139.549 58.7159 139.978Z" fill="white"/>
<path d="M151.963 174.503L154.347 128.737V116.77L159.415 132.499L162.331 145.632H162.662C163.074 144.808 163.654 143.934 164.404 143.007C165.154 142.066 166.169 141.265 167.448 140.603C168.727 139.927 170.359 139.589 172.344 139.589C174.962 139.589 177.322 140.258 179.424 141.596C181.542 142.919 183.218 144.882 184.453 147.485C185.703 150.072 186.328 153.248 186.328 157.013C186.328 160.733 185.718 163.894 184.497 166.497C183.277 169.099 181.615 171.084 179.513 172.452C177.41 173.819 175.028 174.503 172.366 174.503C170.426 174.503 168.815 174.18 167.536 173.533C166.257 172.886 165.228 172.106 164.448 171.195C163.684 170.268 163.088 169.393 162.662 168.57H162.199C162.199 168.57 153.204 169.763 158.565 168.57C163.925 167.377 151.963 174.503 151.963 174.503ZM162.177 156.969C162.177 159.159 162.485 161.078 163.103 162.725C163.735 164.372 164.64 165.659 165.816 166.585C167.007 167.497 168.448 167.952 170.139 167.952C171.903 167.952 173.381 167.482 174.572 166.541C175.763 165.585 176.66 164.284 177.263 162.637C177.88 160.975 178.189 159.086 178.189 156.969C178.189 154.866 177.888 152.999 177.285 151.366C176.682 149.734 175.785 148.455 174.594 147.529C173.403 146.602 171.918 146.139 170.139 146.139C168.433 146.139 166.985 146.588 165.794 147.485C164.603 148.381 163.698 149.639 163.081 151.256C162.478 152.874 162.177 154.778 162.177 156.969Z" fill="white"/>
</g>
<defs>
<clipPath id="clip0_63_1494">
<rect width="265" height="265" fill="white"/>
</clipPath>
</defs>
</svg>
